<?xml version="1.0" encoding="UTF-8" standalone="no"?>
<svg
   xmlns:dc="http://purl.org/dc/elements/1.1/"
   xmlns:cc="http://web.resource.org/cc/"
   xmlns:rdf="http://www.w3.org/1999/02/22-rdf-syntax-ns#"
   xmlns:svg="http://www.w3.org/2000/svg"
   xmlns="http://www.w3.org/2000/svg"
   xmlns:xlink="http://www.w3.org/1999/xlink"
   xmlns:sodipodi="http://sodipodi.sourceforge.net/DTD/sodipodi-0.dtd"
   xmlns:inkscape="http://www.inkscape.org/namespaces/inkscape"
   width="447.64197"
   height="631.57538"
   id="svg2"
   inkscape:label="Pozadí"
   sodipodi:version="0.32"
   inkscape:version="0.44.1"
   sodipodi:docbase="D:\_petr_\School\INKSCAPE\svg\05.Ovoce, zelenina, jidlo"
   sodipodi:docname="jablko_5.svg"
   version="1.0">
  <defs
     id="defs3">
    <linearGradient
       inkscape:collect="always"
       id="linearGradient2762">
      <stop
         style="stop-color:black;stop-opacity:1;"
         offset="0"
         id="stop2764" />
      <stop
         style="stop-color:black;stop-opacity:0;"
         offset="1"
         id="stop2766" />
    </linearGradient>
    <linearGradient
       inkscape:collect="always"
       xlink:href="#linearGradient2762"
       id="linearGradient2768"
       x1="146.34113"
       y1="712.69849"
       x2="593.98309"
       y2="712.69849"
       gradientUnits="userSpaceOnUse"
       gradientTransform="translate(-4.078923,-16.31569)" />
    <linearGradient
       inkscape:collect="always"
       xlink:href="#linearGradient2762"
       id="linearGradient5735"
       gradientUnits="userSpaceOnUse"
       gradientTransform="translate(140.2227,205.9856)"
       x1="146.34113"
       y1="712.69849"
       x2="593.98309"
       y2="712.69849" />
  </defs>
  <sodipodi:namedview
     id="base"
     pagecolor="#ffffff"
     bordercolor="#666666"
     borderopacity="1.0"
     inkscape:pageopacity="0.0"
     inkscape:pageshadow="2"
     inkscape:zoom="0.49032549"
     inkscape:cx="372.04724"
     inkscape:cy="526.18109"
     inkscape:document-units="px"
     inkscape:current-layer="layer1"
     inkscape:window-width="1024"
     inkscape:window-height="710"
     inkscape:window-x="0"
     inkscape:window-y="0" />
  <metadata
     id="metadata6">
    <rdf:RDF>
      <cc:Work
         rdf:about="">
        <dc:format>image/svg+xml</dc:format>
        <dc:type
           rdf:resource="http://purl.org/dc/dcmitype/StillImage" />
        <dc:title>Jablko</dc:title>
        <dc:date>1.11.2006</dc:date>
        <dc:creator>
          <cc:Agent>
            <dc:title>Sarka Slukova</dc:title>
          </cc:Agent>
        </dc:creator>
        <dc:publisher>
          <cc:Agent>
            <dc:title>MS a ZS Machovo namesti</dc:title>
          </cc:Agent>
        </dc:publisher>
        <dc:language>CZ</dc:language>
        <dc:subject>
          <rdf:Bag>
            <rdf:li>jablko</rdf:li>
            <rdf:li>apple</rdf:li>
          </rdf:Bag>
        </dc:subject>
        <cc:license
           rdf:resource="http://web.resource.org/cc/PublicDomain" />
      </cc:Work>
      <cc:License
         rdf:about="http://web.resource.org/cc/PublicDomain">
        <cc:permits
           rdf:resource="http://web.resource.org/cc/Reproduction" />
        <cc:permits
           rdf:resource="http://web.resource.org/cc/Distribution" />
        <cc:permits
           rdf:resource="http://web.resource.org/cc/DerivativeWorks" />
      </cc:License>
    </rdf:RDF>
  </metadata>
  <g
     inkscape:label="Vrstva 1"
     inkscape:groupmode="layer"
     id="layer1"
     transform="translate(-144.3017,-222.3013)">
    <g
       id="g5729"
       transform="translate(2.039462,-34.67085)"
       inkscape:export-filename="C:\Documents and Settings\Šárka\Plocha\PNG\5) a) ovoce =)\jablko.png"
       inkscape:export-xdpi="89"
       inkscape:export-ydpi="89">
      <path
         sodipodi:nodetypes="ccccccccc"
         id="rect3691"
         d="M 268.1892,256.97215 L 308.46857,267.67932 L 348.74793,278.3865 L 368.12281,417.57975 L 387.4977,556.77301 L 369.65241,560.85193 L 351.80713,564.93086 L 301.84032,319.17573 L 268.1892,256.97215 z "
         style="fill:#784421;fill-opacity:1" />
      <path
         sodipodi:nodetypes="csssssssssssssssc"
         id="path1871"
         d="M 589.36463,677.10125 C 589.36463,705.24037 583.11275,732.05409 571.80913,756.44641 C 560.5055,780.83874 544.15014,802.80968 523.94317,821.26323 C 503.7362,839.71676 479.67762,854.65293 452.96759,864.9757 C 426.25754,875.29847 396.89604,881.00785 366.08319,881.00785 C 335.27035,881.00785 305.90885,875.29847 279.1988,864.9757 C 252.48875,854.65293 228.43019,839.71676 208.22322,821.26323 C 188.01624,802.80968 171.66087,780.83874 160.35725,756.44641 C 149.05362,732.05409 142.80175,705.24037 142.80175,677.10125 C 142.80175,648.96214 149.81843,622.40335 162.10992,598.32969 C 174.40141,574.25603 191.96769,552.66749 213.06693,534.46888 C 234.16617,516.27027 258.49856,510.76663 284.77192,512.04331 C 311.04528,513.31998 327.02282,517.29803 355.88588,526.22065 C 377.87996,533.01981 392.82776,519.81854 429.70038,513.67925 C 458.66536,508.85656 504.9758,512.54151 524.93285,531.2728 C 544.88989,550.0041 560.99784,572.39166 572.11652,597.13117 C 583.23521,621.87068 589.36463,648.96214 589.36463,677.10125 z "
         style="opacity:1;fill:#ca2f2f;fill-opacity:1;fill-rule:evenodd;stroke:url(#linearGradient5735);stroke-width:1.07910192px;stroke-linecap:butt;stroke-linejoin:miter;stroke-opacity:1" />
      <path
         sodipodi:nodetypes="csssssssc"
         id="path3702"
         d="M 214.87545,442.34665 C 214.87545,445.92887 207.97558,448.32407 199.24146,451.52284 C 188.43917,455.47906 176.21066,454.07705 161.51712,455.3257 C 146.79022,456.57719 133.11967,457.62651 123.79278,451.52284 C 115.0632,445.81006 108.15879,445.92887 108.15879,442.34665 C 108.15879,438.76443 114.13492,431.34804 123.79278,433.17046 C 133.52043,435.00604 147.12119,425.61313 161.51712,429.36759 C 175.93855,433.1287 190.24553,426.64962 199.24146,433.17046 C 207.76807,439.3511 214.87545,438.76443 214.87545,442.34665 z "
         style="fill:black;fill-opacity:1"
         transform="matrix(0.77027,0,0,0.611111,244.0491,609.7063)" />
      <path
         sodipodi:nodetypes="csssc"
         id="path3699"
         d="M 439.70073,346.92506 C 425.52735,367.6881 365.96184,418.70046 346.63199,402.35578 C 327.30213,386.01111 357.08082,308.8012 371.25419,288.03815 C 385.42757,267.27511 419.75683,254.56264 439.08669,270.90731 C 458.41655,287.25199 453.8741,326.16202 439.70073,346.92506 z "
         style="fill:#4a0;fill-opacity:1" />
    </g>
  </g>
</svg>
