<?xml version="1.0" encoding="UTF-8" standalone="no"?>
<!-- Created with Inkscape (http://www.inkscape.org/) -->
<svg
   xmlns:dc="http://purl.org/dc/elements/1.1/"
   xmlns:cc="http://web.resource.org/cc/"
   xmlns:rdf="http://www.w3.org/1999/02/22-rdf-syntax-ns#"
   xmlns:svg="http://www.w3.org/2000/svg"
   xmlns="http://www.w3.org/2000/svg"
   xmlns:xlink="http://www.w3.org/1999/xlink"
   xmlns:sodipodi="http://sodipodi.sourceforge.net/DTD/sodipodi-0.dtd"
   xmlns:inkscape="http://www.inkscape.org/namespaces/inkscape"
   version="1.0"
   width="394.99289"
   height="382.00528"
   id="svg2"
   sodipodi:version="0.32"
   inkscape:version="0.45.1"
   sodipodi:docname="TheresaKnott_Snowman.svg"
   sodipodi:docbase="/Users/johnolsen/Desktop"
   inkscape:output_extension="org.inkscape.output.svg.inkscape">
  <metadata
     id="metadata72">
    <rdf:RDF>
      <cc:Work
         rdf:about="">
        <dc:format>image/svg+xml</dc:format>
        <dc:type
           rdf:resource="http://purl.org/dc/dcmitype/StillImage" />
      </cc:Work>
    </rdf:RDF>
  </metadata>
  <sodipodi:namedview
     inkscape:window-height="581"
     inkscape:window-width="697"
     inkscape:pageshadow="2"
     inkscape:pageopacity="0.0"
     guidetolerance="10.0"
     gridtolerance="10.0"
     objecttolerance="10.0"
     borderopacity="1.0"
     bordercolor="#666666"
     pagecolor="#ffffff"
     id="base"
     inkscape:zoom="0.37439582"
     inkscape:cx="372.04724"
     inkscape:cy="526.18109"
     inkscape:window-x="0"
     inkscape:window-y="22"
     inkscape:current-layer="svg2" />
  <defs
     id="defs4">
    <linearGradient
       id="linearGradient21159">
      <stop
         style="stop-color:#3c3c39;stop-opacity:1"
         offset="0"
         id="stop21161" />
      <stop
         style="stop-color:#3c3c39;stop-opacity:0"
         offset="1"
         id="stop21163" />
    </linearGradient>
    <linearGradient
       id="linearGradient16713">
      <stop
         style="stop-color:#000000;stop-opacity:1"
         offset="0"
         id="stop16715" />
      <stop
         style="stop-color:#000000;stop-opacity:0"
         offset="1"
         id="stop16717" />
    </linearGradient>
    <linearGradient
       id="linearGradient14053">
      <stop
         style="stop-color:#7c7a79;stop-opacity:1"
         offset="0"
         id="stop14055" />
      <stop
         style="stop-color:#7c7a79;stop-opacity:1"
         offset="0.35714287"
         id="stop14061" />
      <stop
         style="stop-color:#7c7a79;stop-opacity:0"
         offset="1"
         id="stop14057" />
    </linearGradient>
    <linearGradient
       id="linearGradient10457">
      <stop
         style="stop-color:#bebeb8;stop-opacity:1"
         offset="0"
         id="stop10459" />
      <stop
         style="stop-color:#bebeb8;stop-opacity:0"
         offset="1"
         id="stop10461" />
    </linearGradient>
    <linearGradient
       id="linearGradient4109">
      <stop
         style="stop-color:#000000;stop-opacity:1"
         offset="0"
         id="stop4111" />
      <stop
         style="stop-color:#ffffff;stop-opacity:1"
         offset="0.4642857"
         id="stop4113" />
      <stop
         style="stop-color:#e0e2e2;stop-opacity:1"
         offset="1"
         id="stop4115" />
    </linearGradient>
    <linearGradient
       id="linearGradient2335">
      <stop
         style="stop-color:#ffffff;stop-opacity:1"
         offset="0"
         id="stop2337" />
      <stop
         style="stop-color:#ffffff;stop-opacity:1"
         offset="0.4642857"
         id="stop3216" />
      <stop
         style="stop-color:#e0e2e2;stop-opacity:1"
         offset="1"
         id="stop2339" />
    </linearGradient>
    <radialGradient
       cx="398.72549"
       cy="218.39006"
       r="128.40663"
       fx="398.72549"
       fy="218.39006"
       id="radialGradient4146"
       xlink:href="#linearGradient2335"
       gradientUnits="userSpaceOnUse"
       gradientTransform="matrix(0.929804,8.02012e-2,-6.033286e-2,0.654771,-124.9702,-76.68116)" />
    <radialGradient
       cx="375.51828"
       cy="214.52957"
       r="128.40663"
       fx="324.8558"
       fy="163.05632"
       id="radialGradient4148"
       xlink:href="#linearGradient4109"
       gradientUnits="userSpaceOnUse"
       gradientTransform="matrix(0.568432,0,0,0.495922,5.941728,-10.01186)" />
    <radialGradient
       cx="323.17773"
       cy="554.64362"
       r="230.30411"
       fx="425.33771"
       fy="637.302"
       id="radialGradient4151"
       xlink:href="#linearGradient2335"
       gradientUnits="userSpaceOnUse"
       gradientTransform="matrix(1.021917,-6.946991e-2,6.494224e-2,0.894276,-197.3189,-203.6062)" />
    <radialGradient
       cx="371.84894"
       cy="302.33505"
       r="13.991498"
       fx="371.84894"
       fy="302.33505"
       id="radialGradient10463"
       xlink:href="#linearGradient10457"
       gradientUnits="userSpaceOnUse"
       gradientTransform="matrix(0.659511,-7.530772e-2,4.17409e-2,0.376592,-10.79489,43.40444)" />
    <radialGradient
       cx="367.64487"
       cy="537.19476"
       r="187.19954"
       fx="367.64487"
       fy="537.19476"
       id="radialGradient14059"
       xlink:href="#linearGradient14053"
       gradientUnits="userSpaceOnUse"
       gradientTransform="matrix(0.880193,9.844955e-2,-0.181084,1.66788,1.694018,-589.2972)" />
    <linearGradient
       x1="421.00195"
       y1="222.82951"
       x2="412.78928"
       y2="246.45874"
       id="linearGradient16719"
       xlink:href="#linearGradient16713"
       gradientUnits="userSpaceOnUse"
       gradientTransform="matrix(0.801648,0.119451,-0.128787,0.743536,-29.16159,-150.0133)" />
    <radialGradient
       cx="486.15793"
       cy="484.56546"
       r="14.535406"
       fx="486.15793"
       fy="484.56546"
       id="radialGradient21165"
       xlink:href="#linearGradient21159"
       gradientUnits="userSpaceOnUse"
       gradientTransform="matrix(0.689534,8.165952e-6,-9.715076e-6,0.820342,150.9401,87.05185)" />
    <radialGradient
       cx="486.15793"
       cy="484.56546"
       r="14.535406"
       fx="486.15793"
       fy="484.56546"
       id="radialGradient21176"
       xlink:href="#linearGradient21159"
       gradientUnits="userSpaceOnUse"
       gradientTransform="matrix(0.347087,-0.16569,0.241626,0.40381,42.74639,153.013)" />
  </defs>
  <g
     style="display:inline"
     id="layer2"
     transform="translate(-43.776574,-36.511639)" />
  <g
     id="layer1"
     transform="translate(-43.776574,-36.511639)">
    <path
       d="M 58.427708,205.12111 C 58.984768,205.08595 59.465518,205.27785 59.957568,205.51198 C 60.591648,205.78361 61.208818,206.07012 61.783398,206.45662 C 62.271418,206.84061 62.760648,207.2211 63.261178,207.58771 C 63.765678,207.89498 64.080168,208.38156 64.433348,208.84349 C 64.794408,209.33635 65.143888,209.83775 65.538928,210.30281 C 66.003218,210.66558 66.572398,210.85979 67.092898,211.13818 C 67.680768,211.43308 68.217388,211.80409 68.763348,212.17147 C 69.563618,212.66278 70.437628,213.04918 71.324578,213.35042 C 72.130018,213.49723 72.591138,214.09271 73.199878,214.57429 C 73.821428,214.77562 74.462338,214.84206 75.112888,214.86267 C 75.308988,214.80308 75.468518,214.8958 75.656328,214.9133 L 74.362398,215.82901 C 74.179668,215.82454 73.999618,215.79997 73.816148,215.81567 C 73.150138,215.78415 72.477988,215.71553 71.856738,215.45792 C 71.256258,214.9824 70.810298,214.40604 70.015878,214.25351 C 69.124648,213.91758 68.224788,213.5695 67.419948,213.04985 C 66.873578,212.69257 66.340188,212.32386 65.756168,212.03151 C 65.215308,211.75171 64.614278,211.55781 64.159358,211.14461 C 63.769518,210.67338 63.419448,210.17133 63.055388,209.67945 C 62.710598,209.22921 62.399798,208.76453 61.906738,208.46404 C 61.409368,208.09776 60.924808,207.71518 60.438408,207.33427 C 59.856958,206.96885 59.246008,206.67995 58.618218,206.40364 C 58.127968,206.19238 57.651198,206.02943 57.107028,206.09502 L 58.427708,205.12111 z "
       style="fill:#000000;fill-opacity:1;fill-rule:nonzero;stroke:none;stroke-width:1px;stroke-linecap:butt;stroke-linejoin:miter;stroke-opacity:1"
       id="path19389" />
    <path
       d="M 81.537688,190.92002 C 76.634678,191.93735 75.841528,196.74019 76.348738,201.497 C 76.485768,206.79253 78.083348,211.90784 80.258328,216.57248 C 77.772358,218.16162 74.254478,213.92677 71.798758,212.48414 C 69.026138,210.07466 66.048548,207.85489 63.319128,205.4547 C 61.482668,202.04063 55.788388,200.59218 54.471258,205.2155 C 54.609928,209.07661 59.093178,210.04774 61.203828,212.56575 C 65.617808,216.34726 70.098848,220.26807 75.492228,222.23405 C 79.021178,223.89864 80.968188,227.60272 83.261868,230.68863 C 84.375188,234.68062 78.212758,232.16093 76.053688,233.39684 C 69.136048,234.3124 61.182358,235.94223 55.201888,230.90007 C 51.766348,229.23755 50.184968,221.88998 45.830978,225.2132 C 41.10764,227.57505 45.704718,231.46233 47.935188,233.77942 C 52.982598,239.1523 60.639708,239.55465 67.197478,238.15725 C 73.347078,237.43116 79.530618,236.40081 85.721068,236.5898 C 89.572228,237.96139 91.268528,243.37356 95.552998,244.66805 C 99.933258,247.26291 105.05467,247.62008 109.52062,249.89724 C 113.67691,251.5834 114.84601,257.26624 118.83661,258.87697 C 122.595,259.48201 125.24794,254.00822 121.29956,251.90739 C 118.69679,249.33574 116.83658,245.71495 113.20613,244.64894 C 108.70991,243.15596 103.91101,242.42841 99.868168,239.59579 C 96.007718,237.35363 93.388498,233.47075 91.064978,229.56329 C 89.506628,226.05986 84.614888,223.06178 85.131248,219.31423 C 90.380128,215.85528 83.970398,209.81717 83.534838,205.13375 C 81.915668,201.01612 82.616518,196.53151 82.890168,192.22876 C 82.844288,191.5057 82.244708,190.78805 81.537688,190.92002 z "
       style="fill:#6c685c;fill-opacity:1;fill-rule:nonzero;stroke:none;stroke-width:1px;stroke-linecap:butt;stroke-linejoin:miter;stroke-opacity:1"
       id="path17610" />
    <path
       d="M 133.24184,229.62385 C 140.66219,217.97729 146.98593,208.64648 150.39107,206.64982 C 154.07476,204.48984 176.07973,191.19129 188.64709,188.14296 C 201.36137,185.05899 204.80694,182.71853 228.22225,181.12311 C 251.63757,179.5277 275.15502,180.08644 282.30833,181.76128 C 289.5723,183.46203 320.65292,202.22293 329.05356,211.81505 C 337.74074,221.73434 359.47041,260.70028 366.44079,286.79664 C 373.41116,312.89301 373.43335,336.86964 367.56571,349.37426 C 361.79215,361.67837 352.22457,378.50596 345.86127,389.12858 C 339.97516,398.95461 332.7608,400.02597 319.90474,402.56728 C 307.59936,404.99974 308.85668,399.37644 296.15964,398.73827 C 283.4626,398.10011 284.28709,398.89782 269.1166,400.01461 C 253.94612,401.13141 251.30777,400.01461 235.47771,403.20545 C 219.64763,406.39628 223.27536,409.90621 205.79632,412.77796 C 188.31729,415.64972 171.81563,416.67324 165.56157,414.69247 C 159.49882,412.77228 158.56227,410.98583 147.09315,400.65278 C 135.33364,390.05811 119.95075,361.48784 114.51728,341.13797 C 109.22299,321.30934 110.15632,307.4803 112.13508,285.7826 C 114.11384,264.0849 115.43302,267.27574 120.70971,253.23605 C 125.98639,239.19637 125.82149,241.27041 133.24184,229.62385 z "
       style="fill:url(#radialGradient4151);fill-opacity:1;fill-rule:evenodd;stroke:none;stroke-width:1px;stroke-linecap:butt;stroke-linejoin:miter;stroke-opacity:1"
       id="path1460" />
    <path
       d="M 327.34616,263.61069 C 320.34284,265.74227 330.47847,259.33826 326.69426,263.87614 C 325.46527,265.81218 325.30438,267.80173 325.31179,269.96331 C 325.70146,272.01303 327.01672,272.71181 328.92902,273.47325 C 334.41078,273.55585 333.27574,273.87794 328.93531,275.99039 C 330.9665,273.89508 331.98254,273.0173 329.41239,273.46521 C 326.86833,273.97588 325.00337,276.00184 322.66345,274.93979 C 320.61603,273.66006 320.27958,270.3927 320.43103,268.32224 C 321.8618,264.92152 326.49993,263.89374 330.0125,262.52352 C 332.71351,261.63779 332.68615,262.65208 331.2301,264.29743 C 329.63076,265.73671 329.14592,267.20462 329.30818,269.14115 C 334.23038,270.42874 333.20033,269.66167 327.48315,272.72344 C 324.38484,272.96967 323.18161,271.88298 322.51875,269.30393 C 321.84655,264.46441 328.75125,266.0108 333.29025,263.73921 C 339.17305,261.8475 332.04061,263.52172 327.73291,262.81 C 331.66009,261.0833 331.434,259.69706 329.34532,264.03902 C 328.26058,266.01205 328.57723,267.2332 329.9583,268.82532 C 330.73756,269.26406 331.57949,269.58872 332.40543,269.94574 L 327.6768,272.7671 C 326.81185,272.38462 325.75524,273.29128 324.96157,272.79359 C 323.38038,271.13947 323.09778,268.28762 324.21176,266.21289 C 325.86537,262.54544 329.70989,265.48771 334.94053,263.8758 C 340.59049,265.23562 328.61054,263.41876 325.8307,264.48728 C 332.7101,260.80382 326.98612,262.80317 327.50984,266.95132 C 328.09379,269.4208 329.26488,269.95639 332.08718,269.74004 C 331.85482,269.93069 326.48927,276.2702 323.09398,273.19294 C 322.80789,271.1133 324.32958,267.88628 325.96571,266.23618 C 327.52583,264.78513 327.95557,264.94131 325.57363,265.66989 C 319.70293,267.78191 330.69829,261.7879 325.53771,266.10654 C 325.28237,268.00025 325.34859,269.29196 327.26831,270.43913 C 329.54629,271.15951 332.39853,269.51447 334.80641,269.00452 C 337.64198,268.46322 337.86987,270.32975 335.79633,272.66537 C 331.6664,274.88924 328.98649,277.12675 324.26,276.3593 C 322.15327,275.4944 320.77702,274.47265 320.30257,272.30946 C 320.19473,270.06992 320.33051,267.97556 321.54193,265.9487 C 323.58522,262.60678 330.49411,265.07242 334.67594,264.86085 L 327.34616,263.61069 z "
       style="opacity:0.28651686;fill:url(#radialGradient21176);fill-opacity:1;fill-rule:nonzero;stroke:none;stroke-width:1px;stroke-linecap:butt;stroke-linejoin:miter;stroke-opacity:1"
       id="path20284" />
    <path
       d="M 248.66943,60.509424 C 234.65322,62.104854 215.69011,69.124694 205.13674,78.378134 C 194.58335,87.631554 161.27426,129.75061 210.41342,181.76128 C 216.52337,188.22826 203.81756,181.92082 219.64763,181.76128 C 235.4777,181.60174 248.99919,182.12881 269.98345,179.56805 C 288.61742,177.29411 315.8651,151.52841 322.66691,135.01613 C 329.0269,119.57647 331.6124,120.65672 327.81978,104.543 C 324.02715,88.429264 299.78736,62.264384 284.94667,59.233094 C 270.10599,56.201794 262.68564,58.914014 248.66943,60.509424 z "
       style="fill:url(#radialGradient4146);fill-opacity:1;fill-rule:evenodd;stroke:url(#radialGradient4148);stroke-width:0.55912662px;stroke-linecap:butt;stroke-linejoin:miter;stroke-opacity:1"
       id="path3218" />
    <path
       d="M 258.37886,57.316504 C 249.97088,57.768374 234.21204,62.525784 226.93431,66.485454 C 235.68473,63.952774 237.40373,64.404954 244.19556,62.996734 C 251.45257,61.240144 262.58214,57.396154 268.25536,58.468014 C 289.22051,60.274324 310.92058,70.716154 320.24914,89.679014 C 328.79529,106.64341 327.41412,127.58755 318.18857,143.97171 C 326.75297,132.66205 331.49422,118.42009 329.4151,104.35642 C 328.12092,94.553874 321.84388,85.536994 317.69841,79.319524 C 313.59328,73.162554 306.49717,68.513254 300.05202,64.758334 C 287.31784,58.133354 272.6069,57.023404 258.37886,57.316504 z M 210.06841,74.898724 C 194.53708,85.599094 184.87099,102.83475 185.11426,113.65439 C 185.05329,124.34108 182.89531,141.77057 185.35308,152.16975 C 188.68761,164.11949 195.62772,175.46558 205.99428,182.81359 C 204.42129,183.29246 182.22373,189.93582 182.37119,190.20481 C 195.01233,186.18504 222.12082,182.56805 233.38561,181.79958 C 244.62644,183.43656 255.59845,182.56912 267.45493,182.05678 C 279.3114,181.54445 292.86014,186.35711 302.06878,194.84233 C 319.69137,206.26341 336.30075,220.62225 344.6505,239.87623 C 357.31885,262.70177 364.92622,285.75077 370.55243,311.33731 C 371.71465,329.99166 369.30286,346.4879 361.31576,362.84432 C 353.75693,373.88282 347.25935,384.48278 340.08726,395.78467 C 336.60717,399.8774 327.2808,398.96552 322.22089,399.50317 C 309.95454,399.96863 295.57708,396.8081 283.41847,399.87429 C 272.24545,398.37221 247.71535,398.51212 236.97866,403.00897 C 249.91555,401.11239 277.10878,400.57091 289.6071,398.93601 C 300.29809,398.70011 310.38574,403.43339 320.86845,403.96402 C 331.47668,401.15295 343.7242,396.77025 354.24848,402.16711 C 358.63376,404.36819 360.47267,409.11804 363.59208,412.42755 C 366.71077,414.28465 372.00502,413.69808 373.43306,410.12454 C 372.4042,406.85106 368.14762,406.17951 366.13227,403.55923 C 357.68472,397.67071 344.07277,400.78865 345.94822,394.60937 C 350.63327,379.17292 366.7505,361.4268 373.20637,337.24345 C 376.21156,325.98615 378.31754,304.97127 370.37559,282.71973 C 362.37829,260.31307 350.8129,233.80345 339.6859,218.30174 C 328.73033,203.03889 315.47297,197.07536 302.85866,187.02433 C 293.63129,181.92487 286.38395,180.8131 276.19659,178.38697 C 279.8323,176.89532 283.47218,176.0056 270.24988,180.08101 C 260.88557,180.71239 250.93308,179.45628 241.63019,180.67881 C 229.4945,181.11466 216.06883,181.89331 205.44361,175.26864 C 197.84063,169.51923 193.59509,160.60065 190.43345,151.99789 C 185.65929,137.16448 185.39305,121.21628 187.1472,105.88604 C 188.45671,100.51559 189.20359,99.046984 192.80129,94.748784 C 192.80129,94.748784 192.9984,92.820474 196.39832,88.850354 C 199.91951,84.738624 196.15239,87.140154 210.06841,74.898724 z M 155.94423,203.67452 C 140.77053,210.88171 124.03726,241.61364 119.00788,254.58738 C 112.55482,271.12405 110.60068,281.81141 108.07322,298.38126 C 105.53883,314.99668 107.50455,330.22176 111.07107,338.23436 C 118.79977,361.79666 126.03104,377.19786 140.96209,396.46113 C 154.61428,414.07449 169.68382,415.96434 129.59345,408.04495 C 122.28283,408.6101 114.99567,406.48205 107.70882,407.37467 C 104.42283,406.39644 100.94191,407.65914 98.116518,409.24802 C 129.62535,405.25668 164.9053,420.11674 191.71242,418.37414 C 194.58055,418.18521 216.99411,412.51062 228.10742,406.18442 C 201.61126,413.07881 184.28952,414.39458 176.61344,413.54469 C 165.53308,411.85892 160.56038,408.2142 148.01421,397.13142 C 137.21573,385.68945 133.20997,376.2578 125.28265,358.66098 C 117.7789,343.20855 112.26918,327.79272 112.53089,311.12444 C 112.79257,294.45802 115.9766,280.75556 119.0272,266.97833 C 123.53932,250.05903 139.95449,213.30918 155.94423,203.67452 z "
       style="fill:url(#radialGradient14059);fill-opacity:1;fill-rule:nonzero;stroke:none;stroke-width:1px;stroke-linecap:butt;stroke-linejoin:miter;stroke-opacity:1"
       id="path1307" />
    <path
       d="M 240.60882,98.926644 C 235.8862,99.345294 223.64737,102.43887 223.73348,110.39015 C 223.76993,113.51274 229.14635,111.70058 232.69877,112.31748 C 236.25118,112.93438 241.28613,107.4296 242.96731,104.46679 C 244.70959,101.39633 245.33142,98.507994 240.60882,98.926644 z "
       style="fill:#000000;fill-opacity:1;fill-rule:nonzero;stroke:none;stroke-width:1px;stroke-linecap:butt;stroke-linejoin:miter;stroke-opacity:1"
       id="path1387" />
    <path
       d="M 287.9211,102.6673 C 284.23426,102.91568 276.77261,105.64993 273.88515,109.79253 C 270.99769,113.93514 281.72362,118.47756 284.92097,115.8715 C 288.1183,113.26543 292.14089,110.879 292.9111,107.58752 C 293.68132,104.29604 291.60796,102.41893 287.9211,102.6673 z "
       style="fill:#000000;fill-opacity:1;fill-rule:nonzero;stroke:none;stroke-width:1px;stroke-linecap:butt;stroke-linejoin:miter;stroke-opacity:1"
       id="path1389" />
    <path
       d="M 229.17565,154.16341 C 226.12717,154.20132 220.82851,155.3315 221.18207,159.14754 C 221.98392,161.91521 226.06089,161.16802 228.26971,161.88022 C 237.27491,162.69981 246.55763,161.39405 254.9764,158.55465 C 257.73039,157.44373 260.27765,155.94486 262.74868,154.31809 C 253.37428,157.17657 243.29503,156.56483 233.86521,154.38683 C 232.3062,154.25029 230.74253,154.10691 229.17565,154.16341 z "
       style="fill:#000000;fill-opacity:1;fill-rule:nonzero;stroke:none;stroke-width:1px;stroke-linecap:butt;stroke-linejoin:miter;stroke-opacity:1"
       id="path1395" />
    <path
       d="M 241.62145,256.21413 C 239.31317,256.44376 233.3312,258.14062 233.37329,262.50199 C 233.39109,264.21476 236.01893,263.22077 237.75525,263.55915 C 239.49157,263.89752 241.9525,260.87809 242.77421,259.25296 C 243.62579,257.56878 243.92972,255.9845 241.62145,256.21413 z "
       style="fill:#000000;fill-opacity:1;fill-rule:nonzero;stroke:none;stroke-width:1px;stroke-linecap:butt;stroke-linejoin:miter;stroke-opacity:1"
       id="path7776" />
    <path
       d="M 241.62145,290.85533 C 239.31317,291.08497 233.3312,292.78183 233.37329,297.14319 C 233.39109,298.85597 236.01893,297.86198 237.75525,298.20035 C 239.49157,298.53872 241.9525,295.5193 242.77421,293.89417 C 243.62579,292.20999 243.92972,290.6257 241.62145,290.85533 z "
       style="fill:#000000;fill-opacity:1;fill-rule:nonzero;stroke:none;stroke-width:1px;stroke-linecap:butt;stroke-linejoin:miter;stroke-opacity:1"
       id="path7778" />
    <path
       d="M 243.20598,326.76025 C 241.32076,328.13153 235.71979,330.85657 232.9197,327.54809 C 231.82103,326.24795 234.44289,325.23781 235.52912,323.82191 C 236.61536,322.40599 240.42676,323.0309 242.09996,323.70358 C 243.83397,324.40069 245.0912,325.38898 243.20598,326.76025 z "
       style="fill:#000000;fill-opacity:1;fill-rule:nonzero;stroke:none;stroke-width:1px;stroke-linecap:butt;stroke-linejoin:miter;stroke-opacity:1"
       id="path7780" />
    <path
       d="M 243.10535,224.5852 C 240.79706,224.81484 234.81509,226.5117 234.85718,230.87306 C 234.87498,232.58584 237.50283,231.59185 239.23914,231.93022 C 240.97546,232.26859 243.4364,229.24917 244.2581,227.62403 C 245.10968,225.93985 245.41361,224.35557 243.10535,224.5852 z "
       style="fill:#000000;fill-opacity:1;fill-rule:nonzero;stroke:none;stroke-width:1px;stroke-linecap:butt;stroke-linejoin:miter;stroke-opacity:1"
       id="path7782" />
    <path
       d="M 422.05248,197.38954 C 407.43466,200.35522 399.26227,214.3471 391.37587,225.7401 C 386.78351,232.44753 380.57697,237.69526 374.08098,242.33838 C 369.7434,246.39813 368.13148,252.78303 364.25851,256.93202 C 355.40053,262.32647 340.90329,261.75164 331.02715,262.58472 C 328.08235,264.28777 324.39572,268.65497 327.15285,269.42536 C 339.20848,272.79392 360.83669,268.62312 372.64346,256.74084 C 377.85945,250.06031 380.05986,239.44455 389.2677,237.18456 C 397.09709,235.47726 405.1784,238.05647 412.6854,240.14977 C 418.79986,242.4166 425.13937,246.99106 431.76734,243.65626 C 434.46041,242.7053 436.98971,240.91346 438.76947,238.59657 C 432.28833,238.55184 425.46835,238.4121 419.94257,234.64295 C 412.22141,231.67573 403.94226,231.27864 395.85248,230.0304 C 397.68279,223.93542 404.72693,222.18347 410.11178,224.12351 C 414.78932,223.96691 419.91872,220.89335 422.12204,217.18115 C 417.52873,214.44672 410.1787,219.22946 406.98168,213.65114 C 411.44527,207.67608 418.73823,202.72306 422.67849,197.41307 C 422.48064,197.43143 422.23903,197.30976 422.05248,197.38954 z "
       style="fill:#4d524b;fill-opacity:1;fill-rule:nonzero;stroke:none;stroke-width:1px;stroke-linecap:butt;stroke-linejoin:miter;stroke-opacity:1"
       id="path17594" />
    <path
       d="M 414.34159,200.8032 C 408.08638,206.65906 404.62101,207.93418 398.40292,215.88681 C 403.27906,214.03424 404.82638,209.55756 409.89196,206.38163 C 413.09929,203.45013 417.01993,202.26046 419.54652,198.59739 C 418.18629,198.76212 415.70183,200.63847 414.34159,200.8032 z M 408.30328,215.72208 C 404.64152,216.6629 400.03343,217.10517 404.66417,217.10529 C 410.69372,216.65511 416.34758,220.30144 420.85466,218.09619 C 417.60153,217.17395 411.95323,217.22075 408.30328,215.72208 z M 396.52487,218.61669 C 392.8811,224.26683 391.71736,227.78407 388.52231,231.25388 C 385.20097,235.86186 379.62293,239.07364 374.97822,241.94888 C 372.32532,246.50479 370.63241,248.26771 368.57157,251.5846 C 368.1197,254.04816 364.02406,256.94989 364.91871,258.30903 C 368.29346,256.76536 369.85701,253.56582 371.18673,249.5318 C 372.9112,245.35358 376.73764,242.68333 380.86019,240.15779 C 385.09978,238.39937 388.48626,234.46059 392.81218,233.52637 C 399.23466,235.06043 407.02596,231.56601 412.81521,235.45174 C 418.99361,237.67466 426.95581,243.65601 433.65888,240.84356 C 437.58831,240.29788 436.78483,237.50786 432.16636,239.41104 C 425.65668,239.72601 419.98813,235.4708 414.02721,233.51913 C 408.79373,231.2287 400.54395,232.25283 394.95258,232.20635 C 388.45366,233.53269 395.95433,225.34332 395.40482,222.83976 C 396.06277,220.34926 400.85703,214.43946 397.34217,218.03423 L 396.52487,218.61669 z M 392.34765,228.97582 C 389.6352,232.03186 391.11598,226.5531 392.34765,228.97582 z M 392.08131,231.24267 C 389.87579,232.629 391.66673,229.06703 392.08131,231.24267 z M 384.45447,236.27058 C 386.45971,238.6499 379.48884,238.24332 382.79557,236.32618 C 382.61717,236.19172 384.3518,235.6148 384.45447,236.27058 z M 363.76329,258.97652 C 362.62817,260.33395 366.06094,257.83626 363.76329,258.97652 z M 358.47691,259.72959 C 351.01155,263.12407 340.2213,261.56376 332.36837,262.79084 C 325.20455,268.37242 327.7603,267.74262 328.5479,268.14073 C 335.18803,261.08441 345.49556,266.35721 354.64996,261.67772 C 356.65517,260.53829 365.079,258.08154 359.15283,259.6343 L 358.47691,259.72959 z "
       style="opacity:0.74157302;fill:#ffffff;fill-opacity:1;fill-rule:nonzero;stroke:none;stroke-width:1px;stroke-linecap:butt;stroke-linejoin:miter;stroke-opacity:1"
       id="path18497" />
    <path
       d="M 80.432368,191.60031 C 76.947318,192.68514 75.005668,199.40383 76.804318,201.66732 C 77.814848,198.03069 76.078518,197.05444 78.092788,195.09856 C 78.546458,193.76 79.266388,192.4284 80.432368,191.60031 z M 82.140978,199.9191 C 81.108598,203.76901 82.864588,204.59717 82.088928,206.86786 C 82.677338,210.785 82.122928,215.06982 84.258028,218.59316 C 79.179368,219.53049 75.816688,214.77141 71.815018,212.57499 C 66.953438,210.93524 63.595458,205.20614 59.141838,202.91086 C 57.217378,202.03609 54.685248,204.48949 58.333608,204.87366 C 62.966368,206.81495 65.749198,211.48955 70.264298,213.64458 C 74.707058,216.70887 79.893508,218.90086 83.376968,223.20571 C 84.387568,226.30509 87.030698,229.7182 85.670318,232.30985 C 78.312908,233.65245 72.029378,233.86552 64.599568,234.51987 C 58.065408,234.38473 53.727348,230.54424 49.085118,225.30018 C 46.891618,227.95212 49.309258,227.39537 52.949158,232.71357 C 56.930398,236.47744 62.706828,237.16602 67.885888,236.38266 C 73.479668,235.87751 80.030608,234.03612 85.625828,234.00791 C 90.939308,232.83208 95.460498,236.93386 99.048808,240.85216 C 103.8778,244.99451 111.72568,244.80234 114.97926,250.92808 C 116.86905,252.35975 117.14232,256.06581 118.30019,257.0021 C 121.72925,254.93657 120.28456,249.59682 117.17595,248.36002 C 114.44894,245.45688 111.18949,243.96564 107.13308,243.44811 C 101.50387,241.52437 96.726868,236.25788 92.058628,232.71841 C 87.660218,228.17516 85.167218,222.87722 86.405968,216.14267 C 87.086918,214.55962 82.914538,205.88038 82.140978,199.9191 z "
       style="fill:#ffffff;fill-opacity:0.68156427;fill-rule:nonzero;stroke:none;stroke-width:1px;stroke-linecap:butt;stroke-linejoin:miter;stroke-opacity:1"
       id="path19391" />
  </g>
  <g
     id="layer3"
     transform="translate(-43.776574,-36.511639)">
    <path
       d="M 236.33741,56.361134 C 230.4913,56.637124 227.78697,49.915224 229.74427,55.694674 C 230.70669,58.536484 237.93684,57.702424 239.69368,59.955654 C 241.11163,61.774284 248.38868,69.022684 251.74944,70.356304 C 259.17287,73.302094 264.46614,78.367324 270.40742,80.724954 C 276.26658,83.050004 279.5527,86.830464 286.55499,87.873844 C 291.23826,88.571684 296.85349,91.219334 301.02895,92.876254 C 305.44821,94.629904 308.35477,97.512734 313.18867,99.430934 C 318.38008,101.49099 322.87182,105.05618 326.39732,107.40515 C 327.2677,107.98507 323.13897,96.666454 322.96218,96.144454 C 321.3428,91.362804 317.84483,90.056784 312.27994,86.964254 C 306.87356,83.959804 301.70835,80.952014 297.44965,78.114524 C 293.72248,75.631164 290.40043,69.807824 286.09076,66.936374 C 282.46242,64.518874 276.25506,62.961544 271.93712,60.084584 C 267.67138,57.242404 265.67751,63.683304 260.76585,61.734244 C 255.41509,59.610944 242.42588,57.268354 236.33741,56.361134 z "
       style="opacity:0.14606742;fill:url(#linearGradient16719);fill-opacity:1;fill-rule:evenodd;stroke:none;stroke-width:1px;stroke-linecap:butt;stroke-linejoin:miter;stroke-opacity:1"
       id="path16703" />
    <path
       d="M 294.12236,183.66126 C 296.78403,187.3436 295.94843,193.06607 294.12236,196.77296 C 292.46866,200.12995 287.66174,199.58302 283.97247,200.51917 C 279.14641,201.74377 273.35326,201.45571 268.28627,201.45571 C 263.87853,201.45571 258.37962,201.62813 255.36823,202.39227 C 251.85985,203.28251 248.48633,205.07508 244.29562,206.13847 C 242.89026,206.49508 245.18164,219.10115 245.21834,219.25017 C 246.28864,223.59559 246.29399,227.99479 245.21834,232.36187 C 244.12001,236.82105 244.29562,241.6009 244.29562,246.41013 C 244.29562,251.09289 244.29562,255.77564 244.29562,260.45838 C 244.29562,265.72459 242.61789,270.07955 241.52747,274.50664 C 240.52155,278.59062 241.52747,284.32032 241.52747,288.55489 C 241.52747,293.33915 243.34411,297.80351 244.29562,301.6666 C 245.25822,305.57471 246.29627,309.78913 247.06377,312.90521 C 248.77288,319.84412 247.52734,320.40208 245.21834,315.71486 C 244.6865,314.63523 240.68373,309.31932 239.68203,307.28591 C 236.94951,301.73892 236.97592,300.66709 233.22302,304.47626 C 230.26423,307.47939 233.52587,313.19826 234.14572,315.71486 C 234.41064,316.79036 231.50948,310.36332 230.45486,308.22245 C 228.61024,304.4779 224.57397,303.62714 221.22769,304.47626 C 218.42653,305.18704 217.53682,311.63666 217.53682,314.77831 C 217.53682,320.96122 222.65104,322.77885 217.53682,317.58796 C 214.97435,314.98709 212.41655,309.06698 211.0778,306.34935 C 208.21776,300.54354 203.69606,310.25134 203.69606,312.90521 C 203.69606,316.02704 200.33461,318.19014 198.15975,320.39761 C 195.54086,323.05576 200.83011,310.07074 197.23703,309.159 C 194.67019,308.50767 192.6489,311.94282 190.77801,313.84175 C 187.81987,316.84424 194.46888,305.91276 194.46888,301.6666 C 194.46888,296.90925 197.25784,294.13196 199.08247,290.428 C 201.13359,286.26427 203.46038,283.89242 204.61877,279.1894 C 205.93911,273.82892 209.58222,269.46879 213.84594,265.14114 C 218.64607,260.26905 220.30497,250.13016 220.30497,243.60048 C 220.30497,238.54116 221.22769,232.97518 221.22769,227.67913 C 221.22769,221.578 220.30497,216.0846 220.30497,209.88467 C 220.30497,203.81361 224.58284,197.45446 226.76399,193.02676 C 229.45986,187.5542 228.74607,188.30934 235.99117,186.47091 C 242.74328,184.75758 249.15875,184.00289 255.36823,180.85161 C 260.34324,178.32681 269.36285,181.16376 274.7453,178.9785 C 278.60885,177.40992 285.63936,179.35617 288.58606,180.85161 C 288.97511,181.04905 289.2012,181.47598 289.50877,181.78816 C 290.67998,182.97692 292.5845,183.0369 294.12236,183.66126 z "
       style="opacity:0.08988761;fill:#000000;fill-opacity:1;fill-rule:evenodd;stroke:#000000;stroke-width:0.74748755px;stroke-linecap:butt;stroke-linejoin:miter;stroke-opacity:1"
       id="path15828" />
    <path
       d="M 254.90687,121.84894 C 255.48948,122.40587 257.44434,126.61234 257.44434,128.32208 C 257.44434,129.75373 256.81039,130.37481 256.52163,131.66073 C 256.22848,132.96618 254.71263,133.71527 253.5228,133.71527 C 252.27641,133.71527 250.57431,134.2177 249.37056,134.48573 C 248.143,134.75907 246.7888,134.21658 245.91038,133.97209 C 244.95572,133.70639 243.86832,133.72475 242.91155,133.45845 C 241.76694,133.13988 241.03077,132.93498 240.14339,132.688 C 239.19225,132.42327 238.4482,131.63834 237.60593,131.40391 C 235.74807,130.88681 237.02528,130.63346 238.52864,130.63346 C 240.20643,130.63346 241.804,129.58066 243.14222,128.83572 C 244.67925,127.98013 246.17085,127.92028 247.75581,127.038 C 249.09144,126.2945 250.36934,125.86114 251.67736,125.49709 C 252.93357,125.14744 254.04354,125.0788 255.13755,124.46982 C 255.63824,124.1911 254.38712,122.08039 254.90687,121.84894 z "
       style="fill:url(#radialGradient10463);fill-opacity:1;fill-rule:evenodd;stroke:none;stroke-width:1px;stroke-linecap:butt;stroke-linejoin:miter;stroke-opacity:1"
       id="path9582" />
    <path
       d="M 199.86261,284.20435 C 195.86914,284.05993 196.83669,289.55159 196.91801,292.15865 C 196.36128,299.34814 189.20248,303.51296 186.80898,309.69105 C 188.71584,311.83823 191.89574,309.19762 192.07217,306.72584 C 194.09649,300.68681 199.83687,296.61337 200.30314,289.92297 C 200.39734,288.33529 200.92665,284.78734 199.86261,284.20435 z "
       style="fill:#580e19;fill-opacity:1;fill-rule:nonzero;stroke:none;stroke-width:1px;stroke-linecap:butt;stroke-linejoin:miter;stroke-opacity:1"
       id="path5988" />
    <path
       d="M 208.67323,284.25142 C 204.15132,284.35647 205.02068,290.63795 204.15199,293.73539 C 202.66938,299.13985 199.5833,304.31802 198.47146,309.66752 C 197.03611,310.45706 195.64353,315.29612 198.49465,314.06827 C 204.30791,311.79807 201.48588,304.24622 204.50479,299.86405 C 207.10146,294.93067 208.07165,289.47918 208.8819,284.08668 L 208.67323,284.25142 z "
       style="fill:#580e19;fill-opacity:1;fill-rule:nonzero;stroke:none;stroke-width:1px;stroke-linecap:butt;stroke-linejoin:miter;stroke-opacity:1"
       id="path5990" />
    <path
       d="M 216.27818,283.49835 C 210.84885,285.08844 211.03103,292.31488 211.24686,297.0536 C 211.24694,301.1129 213.38709,304.68011 215.35075,308.02018 C 216.51539,309.59672 214.22472,312.58835 216.06951,313.43287 C 218.52091,313.87533 223.30886,310.56259 220.26615,308.27905 C 213.18493,302.00385 213.77116,291.60547 216.27818,283.49835 z "
       style="fill:#580e19;fill-opacity:1;fill-rule:nonzero;stroke:none;stroke-width:1px;stroke-linecap:butt;stroke-linejoin:miter;stroke-opacity:1"
       id="path5992" />
    <path
       d="M 222.77021,283.35715 C 220.59108,290.58153 224.08083,298.08232 228.47393,303.54883 C 228.56632,306.24797 230.15618,311.55909 233.66756,310.39706 C 235.40677,308.35451 231.91859,305.68553 230.978,303.97243 C 226.38997,299.16848 224.38213,292.03519 225.71481,285.56929 C 225.09143,284.65036 223.71495,283.35835 222.77021,283.35715 z "
       style="fill:#580e19;fill-opacity:1;fill-rule:nonzero;stroke:none;stroke-width:1px;stroke-linecap:butt;stroke-linejoin:miter;stroke-opacity:1"
       id="path5996" />
    <path
       d="M 232.67057,281.0038 C 232.86578,288.51314 236.51934,295.31744 238.74526,302.25449 C 238.47679,305.97047 239.89293,311.55118 244.44898,311.10306 C 244.92609,307.36678 241.36627,304.5318 241.08101,300.7881 C 239.28566,295.49561 236.17278,290.67006 236.31074,284.86329 C 236.32313,282.60631 234.14183,281.73286 232.67057,281.0038 z "
       style="fill:#580e19;fill-opacity:1;fill-rule:nonzero;stroke:none;stroke-width:1px;stroke-linecap:butt;stroke-linejoin:miter;stroke-opacity:1"
       id="path5998" />
    <path
       d="M 301.24951,167.94716 C 300.5155,170.59612 299.18453,170.21393 298.77674,173.02845 C 298.36896,175.84297 299.22579,181.28422 298.818,184.42986 C 298.41021,187.57551 297.8393,188.36274 295.29071,190.18324 C 293.40426,191.53077 292.21184,192.79065 288.05241,194.03235 C 283.89298,195.27405 284.87167,194.86016 278.91798,195.68796 C 272.96429,196.51577 272.80117,196.26743 264.23764,197.34356 C 255.6741,198.4197 253.30893,199.41306 244.66384,199.99252 C 236.01875,200.57199 238.13925,200.32365 229.65727,199.66141 C 221.1753,198.99916 217.26053,198.50248 210.73594,197.34356 C 204.21134,196.18464 209.2679,196.68132 203.55888,195.02572 C 197.84985,193.37012 193.77198,191.96286 187.89985,190.72115 C 182.02771,189.47945 180.07033,190.05891 180.07033,190.05891 L 180.15156,186.9342 C 180.15156,186.9342 180.78437,185.36106 183.98509,181.44978 C 186.57231,178.2882 186.10559,176.89687 186.59492,173.17177 C 187.08427,169.44666 185.53468,168.8672 185.94247,166.54935 C 186.35025,164.23151 188.75442,164.25211 190.6109,164.4383 C 195.88708,164.96741 200.45969,165.22487 207.1474,166.21823 C 213.83512,167.21159 204.61912,166.21823 214.97693,167.87383 C 225.33472,169.52943 234.79538,170.19167 248.57859,171.18504 C 262.3618,172.1784 258.85484,172.84064 270.10977,171.84728 C 281.3647,170.85392 286.59409,168.36174 294.12829,165.90871 C 301.9578,163.35953 299.77678,164.86453 299.83795,163.17729 C 299.87921,162.03932 301.98352,165.2982 301.24951,167.94716 z "
       style="fill:#c66105;fill-opacity:1;fill-rule:evenodd;stroke:none;stroke-width:1px;stroke-linecap:butt;stroke-linejoin:miter;stroke-opacity:1"
       id="path5091" />
    <path
       d="M 252.89273,171.08557 C 247.74478,176.33799 249.97718,178.04431 247.04111,190.79245 C 244.10505,203.5406 242.78217,208.00291 241.3957,221.82719 C 240.00922,235.65147 241.4034,231.60306 240.50626,246.08958 C 239.60913,260.5761 239.78249,269.7647 239.53782,280.52612 C 239.29315,291.28754 240.76118,286.32073 240.51651,289.13525 C 240.27184,291.94977 241.08741,290.37695 238.55913,291.78422 C 236.03085,293.19148 235.62306,294.10206 230.40339,294.7643 C 225.18371,295.42654 224.44969,294.18484 217.68042,294.43318 C 210.91115,294.68152 208.46443,296.33712 203.3263,295.75766 C 198.18819,295.1782 198.59598,296.91658 197.12794,292.11533 C 195.65991,287.31408 195.64965,282.82315 196.46523,274.54513 C 197.28081,266.26712 198.58572,268.08828 199.4013,256.99574 C 200.21687,245.9032 200.06401,244.51676 200.71647,232.18252 C 201.36893,219.84827 201.69516,218.27545 203.00008,209.66632 C 204.305,201.05718 201.67978,205.85843 204.45274,197.74598 C 207.22568,189.63353 209.92478,183.66035 213.35018,175.9618 C 216.7756,168.26325 216.57456,165.60498 218.40162,165.69706 C 225.10184,166.03473 226.32551,166.28953 231.38207,166.95177 C 236.43864,167.61401 235.94929,168.69015 239.86406,169.60073 C 243.77882,170.51131 243.28947,170.09742 247.04111,170.5941 C 250.79276,171.09078 253.44397,170.52316 252.89273,171.08557 z "
       style="fill:#d2682c;fill-opacity:1;fill-rule:evenodd;stroke:none;stroke-width:1px;stroke-linecap:butt;stroke-linejoin:miter;stroke-opacity:1"
       id="path5095" />
    <path
       d="M 215.74491,171.0321 C 212.39687,172.53384 214.42045,173.06271 216.7419,174.11498 C 225.82806,178.30495 236.24197,177.39951 245.95606,177.22139 C 247.74762,176.92128 249.51282,176.16667 251.03375,175.05631 C 239.49004,175.00739 226.97277,176.68418 216.5796,170.51436 L 215.94651,170.90705 L 215.74491,171.0321 z M 213.31039,179.9042 C 212.28272,180.03857 209.98026,181.64506 210.43535,182.23401 C 220.13406,183.22356 229.56849,188.18869 239.57995,186.89363 C 242.71249,187.67882 246.09697,186.74593 247.30912,184.9951 C 236.61963,186.21163 227.74377,184.04721 217.53021,180.77494 C 216.13929,180.45301 214.75516,179.83522 213.31039,179.9042 z M 207.56031,192.80052 C 204.45989,194.56156 203.82657,195.50686 207.62986,195.10679 C 219.59433,195.42756 231.59309,199.76434 243.49835,197.2248 C 245.13663,196.20007 247.38774,194.74452 244.19393,195.5304 C 231.85534,196.73353 219.79176,193.18786 207.56031,192.80052 z M 242.66367,201.83735 C 230.17213,204.86726 217.20542,201.46286 204.6157,202.77869 C 201.76657,203.78564 200.2996,205.20294 204.52296,204.59077 C 217.1086,203.9674 230.55495,207.71366 242.52454,202.84929 C 243.56806,202.13387 245.25773,201.60509 242.66367,201.83735 z M 239.18579,209.13272 C 228.79853,211.37836 218.09165,214.42015 207.44438,211.98026 C 204.87982,211.6135 202.33042,212.65048 200.46544,214.263 C 208.44172,214.00083 216.57699,216.49142 224.30641,213.79865 C 230.41841,212.46304 237.28629,212.61407 242.26951,208.42671 C 241.2416,208.66205 240.2137,208.89738 239.18579,209.13272 z M 240.60012,217.44002 C 234.56679,219.64924 228.46343,222.5247 221.79925,222.54197 C 215.90837,222.74858 209.05599,223.35323 203.87376,220.99356 C 202.87736,219.06472 198.98636,219.95178 198.56421,221.7231 C 205.1351,226.48773 214.03727,224.16865 221.61093,224.38238 C 228.42189,223.51866 235.33864,221.85909 240.83198,217.39295 L 240.60012,217.44002 z M 232.9488,226.90046 C 223.09382,228.10098 212.70426,231.60054 202.92314,228.03006 C 201.25249,227.95761 198.26223,228.54318 198.03093,229.70093 C 206.8288,232.49264 216.41374,232.38328 225.11198,229.41853 C 230.47093,228.43364 236.81327,231.63195 241.38845,227.67706 C 238.61444,227.15605 235.69966,227.25588 232.9488,226.90046 z M 201.41606,239.2555 C 200.10915,239.38857 196.8354,241.67342 199.76987,242.15012 C 209.66512,245.78341 219.97764,240.47571 230.18934,242.14974 C 234.22524,241.43221 236.81643,244.6068 240.28381,241.49118 C 241.88251,240.43756 239.31218,240.68175 238.55977,240.24391 C 229.93547,239.42775 221.28186,239.56131 212.8003,241.23231 C 208.91409,241.75495 204.74154,240.95914 201.41606,239.2555 z M 235.22101,250.85748 C 225.10755,252.33938 214.59406,253.57895 204.4534,251.32815 C 202.43956,251.17308 199.48494,252.17769 198.70332,253.51676 C 206.44421,253.23725 214.07197,255.29615 221.86414,254.3346 C 227.15029,254.00657 232.25883,252.79414 237.5396,252.90489 C 238.97341,252.67387 240.40817,252.09828 241.52756,251.16342 C 239.48305,250.68456 237.32471,250.46717 235.22101,250.85748 z M 236.31074,258.48231 C 224.36497,259.81288 212.29119,261.02084 200.27996,259.84725 C 196.64805,261.7874 196.84157,262.7357 201.13784,262.36533 C 213.38536,262.71797 225.78511,261.69751 237.84101,260.36499 C 238.98524,260.28287 241.74218,258.67515 239.11623,258.57645 C 238.19888,258.38985 237.24298,258.45447 236.31074,258.48231 z M 199.09748,265.61294 C 198.13494,266.04182 194.06695,268.4812 197.21943,268.10749 C 207.19713,270.18155 217.03695,273.63881 227.17553,274.22618 C 231.74545,273.88761 236.61584,273.77191 240.3219,270.81383 C 233.42327,271.6037 226.08649,273.526 219.38509,270.5079 C 212.58052,268.99798 205.52291,268.27213 199.09748,265.61294 z M 199.53801,277.68559 C 198.37696,278.08851 196.37573,279.26422 196.4311,280.20367 C 203.42871,281.54635 210.28667,284.87092 217.59977,285.07509 C 224.52028,285.113 233.74277,286.30023 238.79163,281.70981 C 225.71574,284.56434 211.88284,282.85456 199.53801,277.68559 z M 199.42208,289.05224 C 197.48355,289.9406 195.10299,291.28233 198.83837,291.37133 C 207.26582,293.53751 216.13255,294.22064 224.85694,293.40592 C 226.2443,295.14536 229.79088,293.32357 230.02738,291.97038 C 222.02515,290.15222 213.47967,292.9825 205.56633,290.01711 C 203.57137,289.49917 201.48742,288.88171 199.42208,289.05224 z "
       style="opacity:0.29213484;fill:#8f0000;fill-opacity:1;fill-rule:nonzero;stroke:none;stroke-width:1px;stroke-linecap:butt;stroke-linejoin:miter;stroke-opacity:1"
       id="path11353" />
    <path
       d="M 226.44114,165.98826 C 220.44003,168.68381 221.66277,177.54216 217.85482,182.09281 C 212.75393,193.39093 207.68918,205.02776 205.61553,217.35413 C 204.10693,235.21415 201.32981,252.97096 198.17854,270.55009 C 197.57821,277.59594 196.61939,284.98382 197.7527,291.92332 C 199.16429,293.64924 201.22358,289.94413 200.90598,288.48743 C 198.74936,276.09131 202.22937,263.28145 204.18049,250.97498 C 204.14966,245.26127 208.69493,243.32 207.49108,250.32983 C 206.10344,264.78036 205.6869,279.75796 207.09659,294.01779 C 210.12817,293.92723 210.89955,290.22335 209.94845,287.7579 C 207.86388,270.68011 210.35695,253.48015 211.3396,236.43149 C 214.36859,222.23383 221.20804,209.18963 225.09649,195.20146 C 227.62183,189.32989 228.85807,182.82271 232.48508,177.50379 C 234.10446,188.76736 230.12284,199.96676 226.59554,210.49988 C 220.74321,223.83218 216.18746,237.89529 216.83464,252.69309 C 215.95816,263.64455 217.46389,274.6878 215.50399,285.58858 C 215.57948,288.14611 214.07169,292.98683 215.09571,294.30019 C 220.48771,291.15199 217.9111,283.83901 219.22279,278.8152 C 220.43651,269.02011 219.13147,259.21798 220.11189,249.42332 C 219.76797,237.77203 222.46601,226.42696 226.96686,215.81621 C 228.13065,212.27887 231.80921,204.52936 231.27653,212.77715 C 230.89242,222.05155 231.44673,231.42346 229.76565,240.57307 C 230.18799,253.60182 228.40171,266.47031 227.62901,279.42597 C 227.62671,283.58125 227.06309,288.53319 227.63925,292.25278 C 231.05496,291.12929 230.78431,286.16129 230.88525,283.16888 C 229.90445,270.44995 233.2734,257.99051 232.85734,245.25767 C 232.72807,234.98067 235.33468,225.02572 234.17765,214.71014 C 235.29998,201.68773 244.05498,190.69855 244.10118,177.45672 C 244.38633,174.75314 246.85755,170.83124 246.67481,169.19649 C 239.98493,172.73616 241.32787,181.11936 239.74908,187.37111 C 238.85731,191.66988 237.50046,195.98544 234.4095,199.22514 C 234.00195,189.13452 237.68891,178.98592 236.82083,168.98469 C 235.03858,169.73564 233.62811,167.5821 232.48508,167.29028 C 228.583,170.45576 230.65825,176.67712 227.95569,180.68816 C 221.38067,197.75074 216.90741,215.70019 209.13571,232.26321 C 206.09694,237.80737 207.44977,227.06192 207.5835,224.59418 C 207.88893,203.71631 220.0691,185.83541 226.06261,166.44308 L 226.44114,165.98826 z "
       style="opacity:0.21910113;fill:#820000;fill-opacity:1;fill-rule:nonzero;stroke:none;stroke-width:1px;stroke-linecap:butt;stroke-linejoin:miter;stroke-opacity:1"
       id="path10465" />
    <path
       d="M 222.84244,128.87307 C 222.20808,127.64385 225.43759,128.34626 230.91622,126.06342 C 236.39485,123.78058 239.91271,121.67334 244.75697,119.7417 C 249.60124,117.81007 247.87116,117.57593 250.29329,118.33688 C 252.71542,119.09782 253.86881,120.15144 254.44552,122.78549 C 255.02221,125.41954 254.50319,126.59023 252.60007,128.87307 C 250.69697,131.15591 251.61969,131.39004 246.8331,131.91685 C 242.0465,132.44366 239.45135,131.74125 233.45369,130.98031 C 227.45603,130.21936 223.47682,130.10229 222.84244,128.87307 z "
       style="fill:#cd6b1c;fill-opacity:1;fill-rule:evenodd;stroke:#000000;stroke-width:0.74748755px;stroke-linecap:butt;stroke-linejoin:miter;stroke-opacity:1"
       id="path7834" />
    <path
       d="M 250.58085,117.75983 C 247.92572,118.577 245.13083,119.05583 242.68013,120.40113 C 236.88014,123.06639 231.28204,126.57888 224.79152,127.41277 C 223.25182,127.88365 221.35458,127.48052 220.09248,128.64335 C 219.44716,129.97155 221.82127,130.20903 222.74716,130.51473 C 228.31589,131.30751 233.89849,132.16786 239.54043,132.21826 C 241.22703,132.25439 242.88851,132.81301 244.50358,132.61007 C 245.81619,133.17477 247.08487,132.23505 248.31754,131.87514 C 251.87956,130.33697 254.9101,127.30059 255.74999,123.54555 C 255.90445,120.76992 253.68717,117.62174 250.58085,117.75983 z M 249.37503,119.28762 C 252.17539,119.54177 253.81841,122.55567 253.37756,125.06391 C 253.07185,126.76366 251.92086,128.1992 250.79113,129.47905 C 249.70767,130.66104 248.01893,131.40173 246.38628,130.97372 C 245.4759,131.12276 243.53724,130.80441 244.95369,129.73809 C 244.9685,128.90784 246.01114,127.75164 245.7658,127.28495 C 244.05391,127.71811 242.70507,129.20101 242.46728,130.89523 C 239.71916,130.58665 236.95026,130.49749 234.18545,130.48842 C 235.18107,129.72455 236.72408,127.72366 235.89516,126.91193 C 234.4927,127.33421 233.3637,128.31895 233.32859,129.77475 C 232.10888,130.6611 230.49143,129.54096 229.0871,129.6407 C 227.585,129.44475 226.06834,129.29367 224.60431,128.89735 C 228.47745,127.63186 232.27106,126.12974 235.87453,124.26122 C 237.15151,123.51097 238.54205,124.24599 239.57261,125.02968 C 240.69135,125.62545 241.05345,127.11988 240.50162,127.95781 C 242.09495,127.83068 243.90851,126.37125 242.8423,124.7467 C 242.05748,123.64416 240.73696,123.11891 239.54153,122.54209 C 241.15495,121.78026 242.87038,120.40151 244.77272,121.04479 C 246.95417,121.59534 248.23924,124.24635 247.1223,126.17625 C 248.47784,125.74425 250.31879,124.92069 249.85657,123.21941 C 249.6633,121.71835 248.55444,120.54643 247.43076,119.58595 C 248.08423,119.55533 248.77652,119.58772 249.37503,119.28762 z "
       style="fill:#692015;fill-opacity:1;fill-rule:nonzero;stroke:none;stroke-width:1px;stroke-linecap:butt;stroke-linejoin:miter;stroke-opacity:1"
       id="path5085" />
    <path
       d="M 193.34739,164.18387 C 189.23412,164.96125 186.97748,169.57598 188.82615,173.38544 C 190.52886,179.10468 183.93095,182.19389 183.14562,187.3643 C 182.78508,188.51428 180.34766,191.78064 182.79784,189.69411 C 186.49489,187.24594 186.03951,182.19059 189.4058,179.38647 C 191.96257,177.12898 191.50653,173.8459 190.58828,170.98503 C 190.36988,168.29123 191.87007,165.82775 193.69518,164.01914 L 193.34739,164.18387 z M 296.64029,165.00754 C 292.95045,165.20022 295.31376,170.17465 294.27533,172.49117 C 293.54437,175.38166 289.99488,176.98179 291.07569,180.49254 C 291.82684,184.9237 292.74175,190.41722 289.66136,194.02426 C 294.82504,192.17143 294.71212,185.26289 293.39427,180.86907 C 292.92316,175.10657 298.67254,170.65056 296.89533,164.74867 L 296.64029,165.00754 z M 203.17818,165.83121 C 198.43121,167.28784 196.10782,172.58599 196.2688,177.40966 C 195.83844,181.29589 191.7162,183.09661 191.23748,187.03483 C 190.74332,188.43799 189.68898,192.56319 191.90986,190.07064 C 194.2859,187.02511 194.12588,182.62918 197.14987,179.99833 C 199.6625,175.51301 198.28385,168.56567 203.17818,165.83121 z M 208.32544,166.53721 C 204.24941,168.14862 204.85016,173.51484 203.61872,177.15079 C 202.60935,179.9879 205.02338,183.70092 201.94934,185.45809 C 199.76695,187.81318 198.2063,190.72577 197.05713,193.64772 C 201.52228,192.32955 200.69878,185.99536 205.05623,184.56382 C 209.15239,185.29782 205.77195,190.10662 204.4534,192.18865 C 203.81428,193.32405 200.77174,196.62033 203.52597,194.49493 C 208.4117,191.47426 209.35297,185.30122 211.5019,180.42194 C 211.99735,176.50172 212.30776,172.61458 214.56243,169.19649 C 215.60276,167.42486 214.94662,167.18135 213.75093,168.41989 C 209.85614,171.89354 209.60533,177.55958 208.86133,182.48679 C 207.97078,189.40229 206.52962,183.93284 205.84456,180.116 C 205.05609,175.4193 207.7096,170.6693 208.32544,166.53721 z M 257.22437,170.13783 C 257.71523,170.9613 257.4552,169.62259 257.22437,170.13783 z M 287.48189,170.2555 C 283.36739,170.59446 286.12929,175.92355 285.14012,178.53926 C 283.33075,183.201 284.3167,188.67331 281.17534,192.91819 C 279.92458,194.98169 278.64935,197.18172 281.38401,194.68319 C 286.76615,189.84974 286.10066,181.44418 287.64419,174.93865 C 287.2663,173.45565 287.7496,171.40747 287.48189,170.2555 z M 257.54897,170.84383 C 253.87368,171.45189 257.04185,175.74165 257.45623,177.80973 C 259.41517,182.29384 255.13337,186.0781 255.78527,190.65219 C 255.67604,193.34302 254.99776,196.38979 253.81605,198.56621 C 258.96844,195.76171 257.92116,189.47864 258.87057,184.61089 C 260.31216,180.77135 260.982,176.29809 258.19818,172.98537 C 257.91148,172.3265 258.12648,171.13376 257.54897,170.84383 z M 272.85162,171.29097 C 271.30887,171.17024 269.99975,172.10646 271.36773,173.55018 C 273.04927,176.01245 274.14022,178.80323 272.73569,181.64567 C 272.72737,185.95173 273.91669,190.7248 271.06631,194.44786 C 269.47825,196.50777 270.54236,196.48002 271.94738,195.15386 C 275.51427,192.23545 275.32218,187.47874 275.10065,183.31655 C 275.7271,179.77473 276.58264,175.67265 273.91817,172.75004 C 273.53426,172.56962 273.40101,170.82903 272.85162,171.29097 z M 251.05694,172.5853 C 247.10287,173.81416 248.94571,179.32153 248.52968,182.39874 C 249.83899,187.96231 249.79732,195.60273 246.65162,199.69581 C 252.89978,196.7677 251.98773,188.55379 251.04549,182.86254 C 250.2695,179.53953 250.99299,175.27692 251.05694,172.5853 z M 264.43517,173.15011 C 262.44662,173.85061 262.80813,174.82992 264.11056,176.20945 C 266.3718,180.37424 264.68611,185.25965 266.19729,189.59997 C 266.36387,192.50276 265.52242,195.36424 264.11056,197.86021 C 269.30938,195.62314 268.82559,189.2289 267.70437,184.61089 C 267.62692,180.95583 268.26248,177.04513 265.71039,174.02084 C 265.378,173.63139 264.99629,173.05044 264.43517,173.15011 z "
       style="fill:#b83625;fill-opacity:0.39106146;fill-rule:nonzero;stroke:none;stroke-width:1px;stroke-linecap:butt;stroke-linejoin:miter;stroke-opacity:1"
       id="path12258" />
    <path
       d="M 187.5973,167.64328 C 184.76925,168.07553 188.08302,170.48007 189.42898,169.69069 C 197.5762,170.76179 205.85563,174.67517 214.09871,172.96184 C 215.60726,170.98578 212.06588,171.91404 211.20049,171.76163 C 203.12994,171.59863 195.55617,168.12033 187.5973,167.64328 z M 300.5587,168.63169 C 293.27802,174.49511 283.64197,173.83903 274.98472,175.36225 C 267.40809,176.17837 259.37428,176.38965 252.05392,174.89158 C 250.43872,175.16588 249.64377,178.01 252.07711,177.15079 C 263.7161,178.20304 275.34017,176.67508 286.8095,175.10338 C 291.87314,173.79135 287.35429,178.43692 284.81551,178.58633 C 273.68148,182.01652 261.69716,183.49884 250.2918,181.10441 C 248.06632,181.98206 249.9087,184.33843 251.70614,183.24595 C 268.1211,185.68456 283.15415,181.04474 298.25597,175.15021 C 298.12529,174.90023 296.04358,174.57885 297.01127,172.18524 C 297.55776,170.17118 300.04822,170.02511 301.02241,168.30222 L 300.5587,168.63169 z M 249.45711,183.10475 C 249.38022,183.12923 249.48897,183.14817 249.45711,183.10475 z M 187.34226,175.87998 C 185.54122,175.87154 185.49217,178.96716 187.5973,177.64499 C 195.25904,177.53006 203.03347,179.31634 210.57447,179.00993 C 213.96357,177.63941 211.14784,177.54844 208.88393,177.5423 C 201.69968,177.0802 194.52707,176.1662 187.34226,175.87998 z M 297.75321,182.23401 C 289.34555,185.20582 280.67467,187.16488 271.83144,188.16443 C 265.08839,189.24551 258.03101,191.8441 251.26561,190.51778 C 249.01311,189.58669 246.1121,189.90963 244.26348,191.36498 C 256.14587,194.49662 267.95534,189.38486 279.77983,188.11093 C 286.29175,186.63997 293.30095,185.54993 299.02843,181.88101 L 298.31263,182.07916 L 297.75321,182.23401 z M 187.99147,182.25754 C 186.29322,182.13683 183.03739,181.93469 182.61235,184.02255 C 189.99039,184.0105 198.38011,182.5569 204.56934,187.52903 C 205.89843,188.18453 209.90782,186.57375 207.2357,185.48162 C 201.19082,182.62516 194.64029,181.83723 187.99147,182.25754 z M 293.88117,189.22344 C 279.137,194.50548 263.39275,196.08843 247.83411,196.00106 C 245.7754,195.4892 243.75595,197.36923 246.67481,197.69547 C 260.91627,197.17684 275.55592,196.44027 289.17445,191.69445 C 291.30194,190.74408 293.72949,190.0903 295.57374,188.61157 C 295.00955,188.81552 294.44537,189.01948 293.88117,189.22344 z M 188.03783,189.0587 C 186.63756,188.99894 184.39322,191.96762 187.22633,190.96491 C 193.08481,190.43434 198.79105,192.4941 204.17517,194.18899 C 206.10414,193.34091 204.24758,190.49356 202.43624,191.43558 C 197.91909,189.48643 192.79984,189.63745 188.03783,189.0587 z "
       style="fill:#b13c1e;fill-opacity:0.57541899;fill-rule:nonzero;stroke:none;stroke-width:1px;stroke-linecap:butt;stroke-linejoin:miter;stroke-opacity:1"
       id="path13157" />
    <path
       d="M 188.22333,163.9956 C 184.29648,164.84113 183.99643,169.78743 185.18598,172.91477 C 185.45161,176.86034 183.4954,181.22901 181.91678,184.11668 C 187.61854,180.52993 187.35245,173.35965 186.80898,167.45502 C 188.36525,162.69977 194.02497,164.75282 197.47447,165.47821 C 202.65404,165.79874 210.94682,168.52712 216.48685,167.92569 C 212.46474,174.4377 208.21124,186.51382 204.82437,192.96525 C 204.57348,193.62917 204.33902,194.29775 204.10562,194.96559 C 203.29506,193.96125 199.43512,193.27215 198.63376,192.56518 C 193.97045,190.96458 188.45454,190.15982 183.63253,189.83531 C 179.80838,189.22642 181.11561,186.81086 181.61536,184.96389 L 181.63854,184.89329 C 181.66678,184.78505 181.68726,184.66737 181.7081,184.56382 L 180.10828,187.0113 C 179.29747,188.17648 178.5675,189.40499 178.55482,190.14124 C 178.55498,190.19993 178.56805,190.2776 178.57801,190.32951 C 178.58222,190.34864 178.59553,190.382 178.6012,190.40011 C 178.60736,190.41787 178.61672,190.45401 178.62438,190.47071 C 178.62983,190.48161 178.64144,190.50737 178.64757,190.51778 C 178.67025,190.55334 178.70888,190.60616 178.74032,190.63544 C 178.97409,190.83797 179.44643,190.88454 180.22421,190.68251 C 187.85609,190.28947 196.50533,194.48879 203.78101,195.83633 C 197.52353,214.3756 197.77178,234.35332 198.12368,253.77563 C 198.0025,266.03002 192.78157,278.06623 194.57624,290.32304 C 195.24688,296.21419 202.8045,295.43116 207.05022,294.84146 C 212.44177,293.52546 217.91123,293.90558 223.30349,294.72379 C 225.39528,294.71608 229.09641,294.07795 229.93464,293.42945 C 221.52169,292.08873 212.98818,294.28026 204.66208,294.11192 C 198.02501,292.73004 195.80391,284.62162 197.49765,278.69753 C 198.67347,265.27331 202.79438,252.09601 201.06827,238.50243 C 200.35726,217.11956 203.92065,195.36703 213.68137,176.32712 C 214.09658,175.02062 217.62112,169.77057 217.2288,167.83155 C 217.27955,167.82275 217.34092,167.81749 217.3911,167.80802 C 217.33128,167.79171 217.26569,167.77717 217.20562,167.76095 C 217.20343,167.75283 217.20794,167.74541 217.20562,167.73742 C 217.18929,167.68151 217.16021,167.62192 217.13606,167.57268 C 217.11798,167.53822 217.08878,167.48586 217.0665,167.45502 C 217.02486,167.40083 216.96021,167.35548 216.9042,167.31382 C 216.84268,167.40802 216.75716,167.49926 216.69552,167.59622 C 207.94879,165.29891 196.6233,163.93416 188.26969,163.9956 C 188.25418,163.9988 188.23872,163.99229 188.22333,163.9956 z M 228.14933,165.17227 C 228.04821,165.17502 227.93837,165.18962 227.84792,165.19581 C 226.97866,165.33028 217.74116,165.8621 216.99694,166.23128 C 216.9939,166.23296 216.97644,166.22961 216.97376,166.23128 C 216.96912,166.23461 216.95374,166.25151 216.95057,166.25481 C 216.95011,166.25644 216.95065,166.27672 216.95057,166.27835 C 216.95206,166.27994 216.97188,166.3003 216.97376,166.30188 C 216.97644,166.30345 216.99385,166.30032 216.99694,166.30188 C 217.00045,166.30343 217.01621,166.32387 217.02013,166.32541 C 217.02446,166.32695 217.03856,166.32388 217.04332,166.32541 C 217.12099,166.34817 217.25872,166.37542 217.43747,166.39601 C 224.52712,165.63097 240.32289,171.9323 247.13853,170.49083 C 250.71749,171.01863 251.44429,172.68758 248.41375,177.90386 C 244.75124,184.8574 244.53037,192.88827 242.91871,200.49595 C 242.91621,200.49466 242.89804,200.49704 242.89552,200.49595 C 242.89298,200.49522 242.87488,200.49651 242.87234,200.49595 C 242.86978,200.49572 242.85169,200.49602 242.84915,200.49595 C 242.84662,200.49618 242.82849,200.49559 242.82596,200.49595 C 242.82348,200.49657 242.80525,200.4952 242.80278,200.49595 C 242.79795,200.49788 242.7843,200.51714 242.77959,200.51948 C 242.7705,200.52487 242.74155,200.53648 242.73322,200.54302 C 242.72534,200.54999 242.71684,200.559 242.71004,200.56655 C 242.70693,200.57041 242.68962,200.5862 242.68685,200.59008 C 242.68443,200.59395 242.6657,200.60981 242.66367,200.61362 C 242.66203,200.61731 242.66487,200.63361 242.66367,200.63715 C 242.6629,200.64049 242.66395,200.6576 242.66367,200.66068 C 242.66442,200.66313 242.66236,200.68216 242.66367,200.68422 C 242.66476,200.68491 242.6856,200.68364 242.68685,200.68422 C 242.68874,200.68423 242.70798,200.68435 242.71004,200.68422 C 242.71243,200.68376 242.73064,200.68484 242.73322,200.68422 C 242.77438,200.67041 242.83698,200.64809 242.91871,200.59008 C 242.63465,201.92096 242.29554,203.2234 241.89853,204.52017 C 237.92614,225.87084 239.37785,247.87774 237.81782,269.42536 C 236.70648,275.06892 236.1945,280.88191 237.7019,286.46356 C 237.85206,288.50958 236.63069,290.82861 235.40649,291.97038 C 239.02773,290.99033 242.45673,287.34533 240.4842,283.45128 C 238.29453,271.24139 242.82106,259.04901 241.55074,246.76267 C 241.3493,231.26449 242.64511,215.83041 245.19092,200.59008 C 256.96615,200.0504 268.41937,196.12305 280.27109,196.28347 C 287.11905,194.95514 296.29869,193.33783 298.98206,185.74049 C 300.47762,181.9199 296.92746,174.3394 299.9658,171.18338 C 302.09831,169.37059 304.05927,163.31336 300.1281,162.54661 C 289.58136,166.17387 278.00964,171.24371 266.89286,171.5263 C 262.65998,171.83887 258.11293,171.11247 254.16383,170.7497 C 254.02425,170.89096 253.88352,170.99301 253.7233,171.07917 C 254.4151,170.26576 257.25243,174.88109 255.92596,168.74936 C 249.18812,170.35771 242.22095,169.53174 236.0557,166.39601 C 234.3531,165.76523 230.20561,165.11647 228.14933,165.17227 z M 298.80651,164.99409 C 299.2749,164.95959 299.65929,164.97938 299.89624,165.04116 C 299.93199,165.05134 299.98293,165.07535 300.01217,165.08822 C 300.02332,165.09359 300.04846,165.10595 300.05854,165.11176 C 300.06809,165.11779 300.09647,165.12881 300.10492,165.13529 C 300.11229,165.14095 300.12094,165.153 300.1281,165.15883 C 301.88855,166.68002 296.15657,176.87691 297.15038,180.09247 C 298.69536,185.0914 295.86764,189.15614 292.09586,191.78858 C 283.32818,195.46331 273.54293,193.67159 264.50472,196.3776 C 259.11227,197.54805 251.114,198.34101 245.39959,199.31928 C 246.41798,193.38641 247.64089,187.48522 249.01658,181.62214 C 249.31654,178.06778 250.74682,174.93177 252.79588,172.20877 C 263.50861,173.621 273.69929,173.62923 284.37498,171.47923 C 287.90397,170.82014 295.70335,165.22266 298.80651,164.99409 z M 213.93641,172.2323 C 213.93759,172.23358 213.93419,172.25445 213.93641,172.25584 C 213.93985,172.25731 213.95479,172.25431 213.9596,172.25584 C 213.96057,172.25359 213.95948,172.2341 213.9596,172.2323 C 213.95786,172.23201 213.93821,172.23229 213.93641,172.2323 z "
       style="fill:#722629;fill-opacity:1;fill-rule:nonzero;stroke:none;stroke-width:1px;stroke-linecap:butt;stroke-linejoin:miter;stroke-opacity:1"
       id="path5035" />
    <path
       d="M 226.0127,50.634934 C 224.46054,53.184834 225.73177,54.938574 224.33067,57.683964 C 258.02741,66.525144 322.7862,92.032174 325.12962,94.240184 C 330.87491,96.377844 332.63509,96.292524 338.3719,98.506394 C 339.76493,96.139334 338.58816,94.086324 339.70605,91.505304 C 330.97696,89.155444 329.54229,88.666094 320.82835,85.463604 C 316.72506,76.988784 319.76657,65.838184 314.67855,57.997234 C 310.68639,52.041314 304.75277,53.536824 300.10824,54.655794 C 297.3987,56.026104 293.85041,54.131804 292.56702,49.927764 C 290.76748,46.142054 291.78091,40.496484 288.58447,37.993444 C 283.68187,34.642884 278.6415,37.771224 274.19608,39.578654 C 266.78818,42.789484 262.58036,46.781334 256.9505,53.653094 C 257.67044,52.105204 249.79242,59.972894 247.10415,57.369244 C 239.24327,53.844434 227.39403,50.213214 226.0127,50.634934 z "
       style="fill:#62251c;fill-opacity:1;fill-rule:nonzero;stroke:none;stroke-width:1px;stroke-linecap:butt;stroke-linejoin:miter;stroke-opacity:1"
       id="path14063" />
    <path
       d="M 279.2854,39.608664 C 276.43888,39.853184 272.96464,44.767524 274.56508,42.267994 C 271.37985,43.928494 270.42288,45.387634 267.51639,47.265544 C 263.69624,49.795494 259.96302,54.500854 255.78159,56.191324 C 252.81619,57.802124 251.2803,59.929504 247.59789,59.391434 C 246.12865,59.548794 229.82925,52.167284 231.83338,54.139154 C 234.54352,55.270024 247.30724,62.882664 250.08313,63.743204 C 254.77494,63.128164 258.23665,56.493214 263.02082,56.234724 C 266.54056,57.678474 269.75706,55.003494 272.50882,53.100264 C 274.69518,51.543474 278.48802,47.323124 280.82453,49.358064 C 284.48084,52.339644 287.63725,61.781444 292.75246,61.677044 C 298.10656,61.161604 304.18842,58.968584 308.512,55.172164 C 310.13362,53.566294 305.73701,54.261424 304.66351,54.326804 C 302.10223,54.209714 299.81279,54.739434 297.33731,55.310644 C 295.31345,55.633494 292.85231,54.709144 292.39728,52.469374 C 288.99863,50.220734 289.96325,44.051614 287.11527,41.359994 C 284.94558,39.729744 281.97694,39.288734 279.2854,39.608664 z "
       style="fill:#ffffff;fill-opacity:0.21229051;fill-rule:nonzero;stroke:none;stroke-width:1px;stroke-linecap:butt;stroke-linejoin:miter;stroke-opacity:1"
       id="path14947" />
  </g>
</svg>
